<?xml version="1.0" ?><svg enable-background="new 0 0 64 64" version="1.1" viewBox="0 0 64 64" xml:space="preserve" xmlns="http://www.w3.org/2000/svg" xmlns:xlink="http://www.w3.org/1999/xlink"><g id="Flat_1"><g><g><circle cx="32" cy="32" fill="#E9EDF1" r="32"/></g></g><g id="Color_2_53_"><g><g><g><g><g><rect fill="#FFFFFF" height="32.209" width="45.281" x="9.359" y="18.309"/></g></g><g><g><g><polygon fill="#E9EDF1" points="42.239,47.178 21.761,47.178 18.403,49.731 45.597,49.731         "/></g></g><g><g><polygon fill="#E9EDF1" points="19.181,47.178 13.279,47.178 9.921,49.731 15.835,49.731         "/></g></g><g><g><polygon fill="#E9EDF1" points="50.721,47.178 44.819,47.178 48.165,49.731 54.079,49.731         "/></g></g></g><g><g><g><polygon fill="#E9EDF1" points="42.239,21.718 21.761,21.718 18.403,19.165 45.597,19.165         "/></g></g><g><g><polygon fill="#E9EDF1" points="19.181,21.718 13.279,21.718 9.921,19.165 15.835,19.165         "/></g></g><g><g><polygon fill="#E9EDF1" points="50.721,21.718 44.819,21.718 48.165,19.165 54.079,19.165         "/></g></g></g><g><g><path d="M54.281,18.669v31.49H9.719v-31.49H54.281 M55,17.95H9v32.927h46V17.95L55,17.95z" fill="#FFFFFF"/></g></g><g><g><path d="M9,19.165v-5.726c0-0.791,0.647-1.438,1.438-1.438h43.121c0.791,0,1.438,0.647,1.438,1.438v5.726         L9,19.165L9,19.165z" fill="#333333"/></g></g><g><g><polygon fill="#FFFFFF" points="51.372,17.56 24.411,17.56 26.99,13.606 51.372,13.606        "/></g></g><g><g><circle cx="13.843" cy="15.529" fill="#DB2B42" r="1.223"/></g></g><g><g><circle cx="17.084" cy="15.529" fill="#8AD5DD" r="1.223"/></g></g><g><g><circle cx="20.325" cy="15.529" fill="#939393" r="1.223"/></g></g><g><g><path d="M28.372,14.841l0.172,0.747c0.037,0.175,0.075,0.354,0.105,0.533h0.007         c0.034-0.179,0.088-0.362,0.135-0.53l0.213-0.75h0.338l0.206,0.73c0.05,0.193,0.094,0.372,0.132,0.551h0.007         c0.027-0.179,0.064-0.358,0.108-0.551l0.183-0.73h0.408l-0.517,1.645h-0.385l-0.195-0.669         c-0.05-0.172-0.088-0.328-0.125-0.527h-0.007c-0.034,0.203-0.077,0.365-0.125,0.527l-0.209,0.669h-0.389l-0.486-1.645H28.372         z" fill="#333333"/></g><g><path d="M30.956,14.841l0.172,0.747c0.037,0.175,0.075,0.354,0.105,0.533h0.007         c0.034-0.179,0.088-0.362,0.135-0.53l0.213-0.75h0.338l0.206,0.73c0.05,0.193,0.094,0.372,0.132,0.551h0.007         c0.027-0.179,0.064-0.358,0.108-0.551l0.183-0.73h0.408l-0.517,1.645h-0.385l-0.196-0.669         c-0.05-0.172-0.088-0.328-0.125-0.527H31.74c-0.034,0.203-0.077,0.365-0.125,0.527l-0.209,0.669h-0.389l-0.487-1.645H30.956z         " fill="#333333"/></g><g><path d="M33.541,14.841l0.172,0.747c0.037,0.175,0.075,0.354,0.105,0.533h0.007         c0.034-0.179,0.088-0.362,0.135-0.53l0.213-0.75h0.338l0.206,0.73c0.05,0.193,0.094,0.372,0.132,0.551h0.007         c0.027-0.179,0.064-0.358,0.108-0.551l0.183-0.73h0.408l-0.517,1.645h-0.385l-0.195-0.669         c-0.05-0.172-0.088-0.328-0.125-0.527h-0.007c-0.034,0.203-0.077,0.365-0.125,0.527l-0.209,0.669h-0.389l-0.487-1.645H33.541         z" fill="#333333"/></g><g><path d="M35.621,16.256c0-0.156,0.108-0.267,0.257-0.267c0.152,0,0.257,0.108,0.257,0.267         c0,0.152-0.101,0.267-0.257,0.267C35.727,16.522,35.621,16.407,35.621,16.256z" fill="#333333"/></g></g><g><g><polygon fill="#333333" points="39.788,50.146 24.212,50.146 26.368,48.507 37.632,48.507        "/></g></g></g><g><g><rect fill="#333333" height="1.147" width="46" x="9" y="49.731"/></g></g><g><g><polygon fill="#333333" points="54.079,49.731 48.165,49.731 45.597,49.731 18.403,49.731 15.835,49.731 9.921,49.731         9,49.731 9,50.878 55,50.878 55,49.731       "/></g></g></g><g><g><g><polygon fill="#333333" points="48.563,16.751 48.306,16.499 49.195,15.587 48.253,14.668 48.504,14.411 49.703,15.579               "/></g></g></g><g><g><g><rect fill="#333333" height="0.359" width="2.373" x="46.88" y="15.403"/></g></g></g></g></g><g><g><path d="M40.505,40.082h-1.5v-6.932c0-3.862-3.143-7.005-7.005-7.005s-7.005,3.143-7.005,7.005v6.932h-1.5v-6.932     c0-4.689,3.815-8.505,8.505-8.505s8.505,3.815,8.505,8.505V40.082z"/></g><g><path d="M38.961,35.186v8.845c2.117-0.363,3.73-2.202,3.73-4.423C42.691,37.388,41.078,35.548,38.961,35.186z" fill="#333333"/></g><g><path d="M25.039,35.186v8.845c-2.117-0.363-3.73-2.202-3.73-4.423C21.309,37.388,22.922,35.548,25.039,35.186z" fill="#333333"/></g><g><path d="M26.028,35.186h-0.989v8.845h0.989c0.291,0,0.53-0.238,0.53-0.53v-7.786     C26.558,35.424,26.32,35.186,26.028,35.186z" fill="#DB2B42"/></g><g><path d="M37.972,35.186c-0.291,0-0.53,0.238-0.53,0.53v7.786c0,0.291,0.238,0.53,0.53,0.53h0.989v-8.845H37.972z" fill="#DB2B42"/></g></g></g></svg>